<svg viewBox="0 0 48 48" xml:space="preserve" xmlns="http://www.w3.org/2000/svg"><path d="M24 47.001a.997.997 0 0 1-.501-.135c-.239-.138-5.913-3.447-11.678-8.778C3.977 30.835 0 23.668 0 16.787c0-9.275 6.279-13.5 12.113-13.5 4.499 0 9.53 2.572 11.887 8.229 2.357-5.657 7.389-8.229 11.887-8.229C41.721 3.287 48 7.512 48 16.787c0 6.881-3.977 14.048-11.821 21.301-5.765 5.331-11.439 8.641-11.678 8.778a.997.997 0 0 1-.501.135zM12.113 5.287C7.242 5.287 2 8.886 2 16.787 2 30.65 20.674 42.783 24 44.833c3.323-2.051 22-14.193 22-28.046 0-7.901-5.242-11.5-10.113-11.5-4.473 0-9.58 3.062-10.905 9.903a1 1 0 0 1-1.964 0c-1.325-6.84-6.432-9.903-10.905-9.903z" fill="#e4416a" class="fill-000000"></path></svg>