<svg width="48" height="48" xmlns="http://www.w3.org/2000/svg">

    <g>
        <title>background</title>
        <rect fill="none" id="canvas_background" height="402" width="582" y="-1" x="-1"/>
    </g>
    <g>
        <title>Layer 1</title>
        <path fill="#e4415a" id="svg_2"
              d="m24,46.56144c-0.173,0 -0.346,-0.045 -0.501,-0.135c-0.239,-0.138 -5.913,-3.447 -11.678,-8.778c-7.844,-7.253 -11.821,-14.42 -11.821,-21.301c0,-9.275 6.279,-13.5 12.113,-13.5c4.499,0 9.53,2.572 11.887,8.229c2.357,-5.657 7.389,-8.229 11.887,-8.229c5.834,0 12.113,4.225 12.113,13.5c0,6.881 -3.977,14.048 -11.821,21.301c-5.765,5.331 -11.439,8.641 -11.678,8.778c-0.155,0.09 -0.328,0.135 -0.501,0.135zm-11.887,-41.714c-4.871,0 -10.113,3.599 -10.113,11.5c0,13.863 18.674,25.996 22,28.046c3.323,-2.051 22,-14.193 22,-28.046c0,-7.901 -5.242,-11.5 -10.113,-11.5c-4.473,0 -9.58,3.062 -10.905,9.903c-0.091,0.47 -0.503,0.81 -0.982,0.81s-0.891,-0.34 -0.982,-0.81c-1.325,-6.84 -6.432,-9.903 -10.905,-9.903z"/>
        <path d="m26.380951,31.065018c0,0.073261 -0.195705,0.25622 -0.512821,0.43956c-0.966032,0.55851 -2.414579,0.755253 -4.542124,1.025642c-3.146103,0.399837 -7.436664,0.164211 -11.428572,-0.586081c-1.781166,-0.334776 -2.34944,-0.631613 -2.564103,-0.879122c-0.15179,-0.175014 -0.329614,-0.729559 -0.366301,-1.391941c-0.056718,-1.024071 0.241843,-2.125395 0.29304,-3.663004c0.036651,-1.100729 0.409854,-2.284897 1.172162,-3.882784c0.282143,-0.591404 0.586081,-0.87912 0.879121,-1.0989l0.073259,-0.073261l0.07326,-0.073259l0.21978,-0.146521"
              id="svg_4" stroke-opacity="null" stroke-width="null" stroke="null" fill="none"/>
        <ellipse ry="12.820513" rx="14.615384" id="svg_9" cy="28.061355" cx="24.146518" stroke-opacity="null"
                 stroke-width="null" stroke="null" fill="#e4415a"/>
        <ellipse ry="5.311355" rx="9.70696" id="svg_10" cy="15.790293" cx="36.96703" stroke-opacity="null"
                 stroke-width="null" stroke="null" fill="#e4415a"/>
        <ellipse ry="6.483516" rx="7.545787" id="svg_11" cy="12.49359" cx="39.128203" stroke-opacity="null"
                 stroke-width="null" stroke="null" fill="#e4415a"/>
        <ellipse ry="7.838828" rx="7.106227" id="svg_12" cy="12.16392" cx="36.27106" stroke-opacity="null"
                 stroke-width="null" stroke="null" fill="#e4415a"/>
        <ellipse ry="7.142857" rx="7.728938" id="svg_13" cy="12.20055" cx="31.912086" stroke-opacity="null"
                 stroke-width="null" stroke="null" fill="#e4415a"/>
        <ellipse ry="3.882784" rx="6.959707" id="svg_14" cy="20.076007" cx="40.300364" stroke-opacity="null"
                 stroke-width="null" stroke="null" fill="#e4415a"/>
        <ellipse ry="0.769231" rx="3.809524" id="svg_15" cy="18.061355" cx="43.597067" stroke-opacity="null"
                 stroke-width="null" stroke="null" fill="#e4415a"/>
        <ellipse ry="8.571428" rx="6.153846" id="svg_16" cy="21.834249" cx="24.329668" fill-opacity="null"
                 stroke-opacity="null" stroke-width="null" stroke="null" fill="#e4415a"/>
        <ellipse ry="13.186813" rx="5.311355" id="svg_17" cy="19.782967" cx="18.065932" fill-opacity="null"
                 stroke-opacity="null" stroke-width="null" stroke="null" fill="#e4415a"/>
        <ellipse ry="1.135531" rx="6.886447" id="svg_18" cy="5.900183" cx="11.582416" fill-opacity="null"
                 stroke-opacity="null" stroke-width="null" stroke="null" fill="#e4415a"/>
        <ellipse ry="10.03663" rx="6.117216" id="svg_19" cy="19.270147" cx="9.128203" fill-opacity="null"
                 stroke-opacity="null" stroke-width="null" stroke="null" fill="#e4415a"/>
        <ellipse ry="0.659341" rx="2.051282" id="svg_20" cy="26.229853" cx="6.527471" fill-opacity="null"
                 stroke-opacity="null" stroke-width="null" stroke="null" fill="#e4415a"/>
        <ellipse ry="0.952381" rx="7.472527" id="svg_21" cy="6.742674" cx="13.413917" fill-opacity="null"
                 stroke-opacity="null" stroke-width="null" stroke="null" fill="#e4415a"/>
        <ellipse ry="7.326007" rx="4.395604" id="svg_22" cy="12.89652" cx="13.706958" fill-opacity="null"
                 stroke-opacity="null" stroke-width="null" stroke="null" fill="#e4415a"/>
        <ellipse ry="6.959707" rx="6.556776" id="svg_23" cy="12.82326" cx="8.029302" fill-opacity="null"
                 stroke-opacity="null" stroke-width="null" stroke="null" fill="#e4415a"/>
        <ellipse ry="4.212454" rx="0.21978" id="svg_24" cy="19.306777" cx="2.498167" fill-opacity="null"
                 stroke-opacity="null" stroke-width="null" stroke="null" fill="#e4415a"/>
        <ellipse ry="4.578754" rx="2.637363" id="svg_25" cy="19.526557" cx="3.377288" fill-opacity="null"
                 stroke-opacity="null" stroke-width="null" stroke="null" fill="#e4415a"/>
        <ellipse ry="2.857143" rx="3.992674" id="svg_26" cy="29.013736" cx="10.007324" fill-opacity="null"
                 stroke-opacity="null" stroke-width="null" stroke="null" fill="#e4415a"/>
        <ellipse ry="2.161172" rx="1.758242" id="svg_28" cy="27.365385" cx="6.38095" fill-opacity="null"
                 stroke-opacity="null" stroke-width="null" stroke="null" fill="#e4415a"/>
        <ellipse ry="1.941392" rx="2.454212" id="svg_29" cy="32.71337" cx="10.446884" fill-opacity="null"
                 stroke-opacity="null" stroke-width="null" stroke="null" fill="#e4415a"/>
        <ellipse ry="1.208791" rx="0.879121" id="svg_30" cy="34.471612" cx="11.655676" fill-opacity="null"
                 stroke-opacity="null" stroke-width="null" stroke="null" fill="#e4415a"/>
        <ellipse ry="2.454212" rx="5.238095" id="svg_31" cy="24.434982" cx="40.190474" fill-opacity="null"
                 stroke-opacity="null" stroke-width="null" stroke="null" fill="#e4415a"/>
        <ellipse ry="1.684982" rx="4.285714" id="svg_32" cy="26.083333" cx="39.604393" fill-opacity="null"
                 stroke-opacity="null" stroke-width="null" stroke="null" fill="#e4415a"/>
        <ellipse ry="4.029304" rx="0.43956" id="svg_33" cy="41.101648" cx="24.109888" fill-opacity="null"
                 stroke-opacity="null" stroke-width="null" stroke="null" fill="#e4415a"/>
        <ellipse ry="2.454212" rx="0.03663" id="svg_34" cy="41.358058" cx="26.12454" fill-opacity="null"
                 stroke-opacity="null" stroke-width="null" stroke="null" fill="#e4415a"/>
        <ellipse ry="0.879121" rx="2.271062" id="svg_35" cy="27.035714" cx="40.666664" fill-opacity="null"
                 stroke-opacity="null" stroke-width="null" stroke="null" fill="#e4415a"/>
        <ellipse ry="3.992674" rx="1.758242" id="svg_36" cy="30.002747" cx="39.347983" fill-opacity="null"
                 stroke-opacity="null" stroke-width="null" stroke="null" fill="#e4415a"/>
        <ellipse ry="1.831502" rx="1.575092" id="svg_37" cy="27.988095" cx="41.728935" fill-opacity="null"
                 stroke-opacity="null" stroke-width="null" stroke="null" fill="#e4415a"/>
        <ellipse ry="1.941392" rx="1.025641" id="svg_38" cy="32.49359" cx="37.296701" fill-opacity="null"
                 stroke-opacity="null" stroke-width="null" stroke="null" fill="#e4415a"/>
        <ellipse ry="2.564103" rx="7.728938" id="svg_39" cy="39.416666" cx="25.538459" fill-opacity="null"
                 stroke-opacity="null" stroke-width="null" stroke="null" fill="#e4415a"/>
        <ellipse ry="1.172161" rx="3.186813" id="svg_40" cy="40.515567" cx="19.457873" fill-opacity="null"
                 stroke-opacity="null" stroke-width="null" stroke="null" fill="#e4415a"/>
        <ellipse ry="3.369963" rx="2.380952" id="svg_41" cy="41.980769" cx="25.538459" fill-opacity="null"
                 stroke-opacity="null" stroke-width="null" stroke="null" fill="#e4415a"/>
        <ellipse ry="0.43956" rx="2.380952" id="svg_42" cy="44.032051" cx="23.047617" fill-opacity="null"
                 stroke-opacity="null" stroke-width="null" stroke="null" fill="#e4415a"/>
        <ellipse ry="0.769231" rx="2.087912" id="svg_43" cy="43.33608" cx="22.388276" fill-opacity="null"
                 stroke-opacity="null" stroke-width="null" stroke="null" fill="#e4415a"/>
        <ellipse ry="1.098901" rx="2.673993" id="svg_44" cy="42.200549" cx="22.095236" fill-opacity="null"
                 stroke-opacity="null" stroke-width="null" stroke="null" fill="#e4415a"/>
        <ellipse ry="1.391941" rx="1.611722" id="svg_45" cy="39.343406" cx="17.809522" fill-opacity="null"
                 stroke-opacity="null" stroke-width="null" stroke="null" fill="#e4415a"/>
    </g>
</svg>